<?xml version="1.0" encoding="iso-8859-1"?>
<!-- Uploaded to: SVG Repo, www.svgrepo.com, Generator: SVG Repo Mixer Tools -->
<svg fill="#000000" version="1.1" id="Layer_1" xmlns="http://www.w3.org/2000/svg" xmlns:xlink="http://www.w3.org/1999/xlink" 
	 viewBox="0 0 511.999 511.999" xml:space="preserve">
<g>
	<g>
		<path d="M339.853,0H172.146c-27.238,0-49.399,22.16-49.399,49.399V462.6c0,27.238,22.16,49.399,49.399,49.399h167.706
			c27.238,0,49.399-22.16,49.399-49.399V49.399C389.252,22.16,367.092,0,339.853,0z M154.094,49.399
			c0-9.954,8.098-18.052,18.052-18.052h167.707c9.954,0,18.052,8.098,18.052,18.052v32.831h-203.81V49.399z M357.24,113.576v280.567
			h-202.48V113.576H357.24z M357.906,462.601h-0.001c0,9.954-8.098,18.052-18.052,18.052H172.146
			c-9.954,0-18.052-8.098-18.052-18.052v-37.111h203.812V462.601z"/>
	</g>
</g>
<g>
	<g>
		<rect x="230.441" y="438.857" width="51.116" height="31.347"/>
	</g>
</g>
<g>
	<g>
		<rect x="199.063" y="46.709" width="78.356" height="18.807"/>
	</g>
</g>
<g>
	<g>
		<rect x="294.149" y="46.709" width="18.797" height="18.807"/>
	</g>
</g>
</svg>